<?xml version="1.0" encoding="utf-8"?>
<svg xmlns="http://www.w3.org/2000/svg" width="706" height="507" viewBox="0 0 706 507" fill="none">
<path d="M74.5386 502.316C72.9973 504.06 69.3886 504.998 64.3527 504.947C57.4885 504.88 50.5066 504.766 43.7528 504.66L33.4528 504.498L13.0258 504.204C12.7021 504.204 5.08753 504.067 2.18515 495.474C-0.136015 488.595 3.93984 481.338 7.53746 474.933C8.19592 473.764 8.8176 472.656 9.37674 471.571C12.0106 466.568 14.4274 461.352 16.7633 456.305C19.136 451.177 21.5932 445.876 24.2749 440.807C26.1804 437.21 33.2615 425.983 37.7531 421.495C40.718 418.53 47.9758 414.506 52.4967 412.074C57.5768 422.006 66.7989 436.618 67.2918 437.397C68.1011 438.681 68.8515 440.05 69.5725 441.37C70.2935 442.691 71.0256 444.022 71.8423 445.321C69.4512 448.003 66.6923 451.575 65.9345 454.462C64.5219 459.748 63.1387 469.324 63.1387 473.797V484.464C60.9316 482.931 59.0593 481.433 59.0335 481.411L58.1065 482.555C58.2353 482.658 60.5417 484.523 63.1387 486.234C63.6243 486.554 64.1172 486.87 64.6102 487.172C65.1031 487.474 65.5115 487.705 65.9492 487.941C66.5525 488.264 67.1778 488.537 67.8436 488.827C71.0513 490.221 74.3694 491.667 75.3736 499.127C75.4856 499.687 75.4686 500.266 75.3239 500.818C75.1793 501.371 74.9107 501.883 74.5386 502.316V502.316Z" fill="#F7F5EE"/>
<path d="M528.16 283.255C527.476 284.776 526.674 286.241 525.761 287.636C523.499 290.946 521.715 293.363 519.875 295.092C516.289 298.447 512.919 301.956 508.961 306.198C508.13 307.088 507.31 308.011 506.519 308.901C505.345 310.222 504.131 311.587 502.873 312.856L502.531 313.202C500.839 314.916 499.242 316.538 497.102 317.414C496.52 317.653 495.1 318.113 494.457 317.248C493.953 316.571 493.986 315.446 494.089 314.544C494.248 313.343 494.75 312.213 495.535 311.289C496.305 310.294 497.149 309.359 498.058 308.489L510.429 296.093L509.388 295.052C508.994 295.445 506.945 297.498 504.628 299.834L504.562 299.768L489.711 314.618L489.649 314.688C487.611 317.318 484.867 320.312 481.825 320.173C481.341 320.157 480.876 319.986 480.498 319.685C480.119 319.385 479.848 318.97 479.724 318.502C479.286 316.56 479.581 315.85 480.486 314.519C481.019 313.945 481.508 313.356 481.957 312.819C483.575 310.873 485.315 309.141 487.158 307.301L487.673 306.786C489.347 305.113 492.036 302.46 494.637 299.896C497.238 297.332 499.901 294.702 501.589 293.014L500.534 291.991C498.864 293.658 496.189 296.295 493.603 298.848C491.017 301.401 488.31 304.068 486.614 305.745L486.099 306.26C484.315 308.044 482.468 309.887 480.806 311.885C479.143 313.882 476.984 316.479 474.184 316.233C473.734 316.208 473.304 316.034 472.963 315.74C472.29 315.115 472.363 313.868 472.481 312.985C472.666 311.739 473.183 310.566 473.978 309.589C474.655 308.729 476.391 306.569 476.744 306.124C476.847 306.054 476.95 305.977 477.057 305.896C478.771 304.601 480.257 302.953 481.696 301.36C482.317 300.673 482.957 299.963 483.594 299.308C486.342 296.483 489.185 293.654 491.937 290.921C493.126 289.739 494.312 288.558 495.494 287.378L495.862 287.01L494.821 285.969L494.453 286.337C493.271 287.519 492.086 288.699 490.9 289.876C488.144 292.617 485.297 295.449 482.538 298.282C481.883 298.955 481.232 299.676 480.603 300.375C479.213 301.916 477.774 303.512 476.171 304.723C474.931 305.657 473.86 306.194 472.889 306.367C472.399 306.475 471.886 306.403 471.444 306.165C470.708 305.709 470.535 304.667 470.498 304.241C470.34 302.427 471.263 300.985 472.187 299.827C472.928 298.893 473.73 298.009 474.589 297.182L485.382 286.44L485.58 286.282V286.26L493.526 278.366L492.485 277.325L484.392 285.351L480.015 288.842C478.974 288.618 476.866 287.959 476.384 286.823C475.902 285.686 478.517 282.269 479.761 280.602C480.294 279.892 480.758 279.274 481.063 278.796C482.222 276.994 486.798 273.738 490.822 271.31C493.6 269.637 499.456 265.163 502.884 262.504C511.157 269.254 522.785 278.778 528.16 283.255Z" fill="#F7F5EE"/>
<path d="M138.821 82.0065C139.612 78.6296 140.425 75.135 139.528 71.6809C138.351 67.1562 136.563 64.2502 133.55 61.9658L132.568 61.2301C130.442 59.6483 128.264 58.0224 126.936 55.8557C128.613 50.2901 126.27 47.3951 126.134 47.2442L125.009 48.1896C125.112 48.3147 126.708 50.3563 125.792 54.4432C125.673 54.9805 125.52 55.51 125.336 56.0286C124.536 58.2076 123.42 60.2575 122.025 62.1129C118.998 66.3065 115.312 68.9219 111.041 71.9494L110.787 72.1296C108.238 73.9395 104.493 77.5298 101.473 87.7856C101.16 88.8487 100.914 89.9927 100.656 91.1735C100.035 94.0428 99.391 97.0114 97.7578 99.0199C97.4528 99.3946 97.1142 99.7406 96.7462 100.054C96.358 100.384 95.9393 100.678 95.4955 100.929C93.1412 102.257 89.9409 102.518 85.9313 101.705C81.517 100.808 77.18 99.3546 73.1483 97.9126C69.7493 96.6987 66.2509 95.5804 62.8703 94.5026C61.3989 94.0354 59.957 93.5719 58.5039 93.0974L58.2244 93.0054C57.4819 92.7836 56.7654 92.4827 56.0871 92.1079C55.9596 92.0346 55.8368 91.9535 55.7193 91.8651C54.3803 90.8976 54.2147 89.2901 54.2478 88.3962C54.3876 82.9446 55.6089 79.2881 58.2096 76.5439C59.8981 74.7635 61.9949 73.1743 65.0113 71.3939L65.3976 71.1659C67.5642 69.8784 69.6131 68.6644 71.9784 68.1715L72.2838 68.1053C72.762 68.006 73.2549 67.8956 73.7552 67.7742C75.9348 67.3103 78.0262 66.5006 79.9499 65.3758L79.1737 64.1251C77.4919 65.1106 75.6679 65.8303 73.7663 66.2587C73.8766 58.2431 74.9213 50.2275 79.2841 43.6981C80.1943 42.3358 81.2354 41.0655 82.3924 39.9055C84.9454 37.3526 88.142 35.5317 91.1952 33.8874C98.1403 30.1463 104.685 29.2046 111.21 31.0071C114.44 31.8973 117.596 33.2694 120.649 34.5937L121.838 35.1124L123.166 35.6789C127.69 37.6101 132.362 39.6076 135.617 43.3376C138.76 46.9747 140.995 51.3051 142.139 55.9734L142.404 57.0181C143.442 61.0646 144.512 65.2434 144.512 69.3891C144.425 71.0937 144.235 72.7914 143.942 74.4729C143.317 78.7363 142.603 83.5699 143.6 86.6121C144.135 88.0629 144.852 89.4399 145.733 90.71C146.554 92.0049 147.337 93.2408 147.727 94.6166C144.049 92.8693 139.925 92.0085 136.806 91.5818C137.318 89.7924 137.713 87.9713 137.986 86.1302L138.126 85.3283C138.303 84.2431 138.557 83.1579 138.821 82.0065Z" fill="#F7F5EE"/>
<path d="M137.391 81.6715C137.129 82.7751 136.861 83.9485 136.655 85.0742L136.519 85.8761C136.245 87.742 135.838 89.586 135.301 91.3939C135.143 91.8758 134.966 92.3577 134.764 92.8322C134.621 93.178 134.462 93.5238 134.29 93.8659C129.842 102.658 119.884 105.784 112.001 105.784H111.883C106.844 105.762 102.249 104.181 97.9233 100.962C98.275 100.646 98.6011 100.303 98.8982 99.9355C100.737 97.6548 101.436 94.5133 102.095 91.4748C102.349 90.3087 102.584 89.2052 102.882 88.1936C104.269 83.4924 106.686 76.8379 111.641 73.3212L111.894 73.1409C116.088 70.1687 120.05 67.3583 123.217 62.9661C124.455 61.2895 125.495 59.4749 126.314 57.5586C127.786 59.5119 129.827 61.0238 131.681 62.4069L132.653 63.1426C135.419 65.2394 136.993 67.8218 138.093 72.0558C138.91 75.1531 138.126 78.4675 137.391 81.6715Z" fill="#F7F5EE"/>
<path d="M348.786 499.116C344.496 504.534 342.532 504.954 342.197 504.979C339.152 505.233 332.203 505.138 327.115 505.068C325.092 505.042 323.345 505.016 322.149 505.016C312.705 505.016 303.264 505.016 293.824 505.016H263.627C261.302 505.016 258.988 505.016 256.671 505.038C253.566 505.038 250.355 505.075 247.188 505.038C243.097 505.012 238.216 504.483 236.788 500.569C236.288 499.197 236.181 497.666 236.078 496.188C235.736 491.244 237.995 486.473 241.832 484.048C244.502 482.353 248.107 481.278 251.981 481.032C254.232 480.889 259.485 480.992 264.12 481.083C267.824 481.157 271.323 481.227 273.11 481.172C276.053 481.083 279.037 480.068 282.55 477.953C284.856 476.566 292.287 470.508 295.425 467.918C297.07 469.008 298.881 469.824 300.788 470.335C304.275 471.129 343.154 474.668 344.805 474.819H344.842C344.886 474.819 345.122 474.819 345.504 474.819C346.508 474.818 347.511 474.764 348.51 474.657C348.58 475.937 348.675 477.14 348.8 478.291C349.043 480.162 349.383 482.018 349.819 483.853C351.007 489.22 352.218 494.775 348.786 499.116Z" fill="#F7F5EE"/>
<path d="M220.158 496.358C220.055 497.83 219.948 499.367 219.448 500.739C218.863 502.351 217.759 503.252 216.284 504.105C215.303 504.676 214.189 504.977 213.054 504.977C172.355 505.018 124.427 505.043 123.298 504.977C122.952 504.951 121.002 504.532 116.713 499.113C113.277 494.773 114.506 489.218 115.665 483.847C116.101 482.012 116.441 480.156 116.684 478.285C116.871 476.557 116.996 474.725 117.052 472.687V472.665C119.148 473.216 121.298 473.536 123.463 473.621C123.831 473.621 124.239 473.647 124.626 473.647C125.932 473.647 127.23 473.555 128.492 473.467C130.044 473.326 131.602 473.272 133.16 473.305C141.547 473.651 150.122 473.592 158.409 473.536C161.533 473.514 164.762 473.492 167.93 473.492C170.763 473.586 173.555 472.792 175.916 471.223C179.37 474.055 185.888 479.338 188.026 480.618C191.535 482.725 194.537 483.748 197.465 483.84C199.352 483.895 201.261 483.792 203.111 483.689C205.273 483.524 207.442 483.49 209.608 483.586C211.999 483.737 216.369 484.528 218.778 488.089C220.4 490.495 220.349 493.371 220.158 496.358Z" fill="#F7F5EE"/>
<path d="M96.3379 447.191C94.1124 449.051 91.6087 450.549 88.9183 451.631C84.5629 453.283 80.1891 452.323 76.5988 448.928C75.5156 447.885 74.5486 446.728 73.7148 445.477C73.4278 445.054 73.1556 444.631 72.8871 444.193C72.1918 443.06 71.5444 441.876 70.8823 440.666C70.1466 439.323 69.3889 437.936 68.5502 436.619C68.0609 435.847 58.8204 421.191 53.8065 411.392C53.5747 410.939 53.354 410.502 53.1443 410.075C52.3128 408.458 51.5915 406.786 50.9851 405.072C48.5094 397.421 49.9587 387.29 52.8795 384.369C54.4061 382.842 56.4734 380.462 58.6622 377.946C61.0679 375.173 63.5583 372.307 65.5668 370.299C67.9432 367.922 71.8939 362.794 73.4831 360.698L73.7442 360.355C77.6067 373.293 87.7926 407.404 88.5614 410.016C89.665 413.768 90.5 417.704 91.2983 421.508C91.4528 422.243 91.6085 422.979 91.7655 423.715C92.5012 427.11 93.0125 430.583 93.5201 433.938C93.888 436.266 94.2559 438.676 94.6679 441.052C95.0548 443.141 95.6133 445.194 96.3379 447.191V447.191Z" fill="#F7F5EE"/>
<path d="M179.521 465.117C178.598 466.731 177.396 468.17 175.971 469.365C175.576 469.686 175.162 469.982 174.731 470.252C172.679 471.48 170.317 472.094 167.926 472.021C164.755 472.021 161.521 472.043 158.398 472.065C150.125 472.121 141.569 472.18 133.215 471.837C131.603 471.801 129.991 471.855 128.385 471.999C126.771 472.147 125.15 472.197 123.529 472.15C121.375 472.07 119.236 471.739 117.158 471.164C116.655 471.024 116.165 470.866 115.687 470.69C115.179 470.502 114.686 470.3 114.215 470.075C109.113 467.699 106.49 463.277 103.673 458.598L103.367 458.091C101.311 454.768 99.5428 451.275 98.0811 447.651C97.8923 447.16 97.712 446.67 97.5404 446.18C96.9299 444.421 96.4541 442.618 96.1168 440.787C95.6938 438.429 95.3296 436.03 94.9801 433.713C94.4688 430.336 93.9391 426.841 93.207 423.413C93.0488 422.677 92.8944 421.942 92.7399 421.206C91.938 417.373 91.1067 413.407 89.9773 409.596C89.1828 406.918 78.4377 370.931 74.8474 358.899C74.7812 358.683 74.7187 358.473 74.6598 358.269L74.5201 357.81C74.4538 357.585 74.3876 357.361 74.3177 357.136C71.7942 348.664 69.2756 340.191 66.762 331.718C65.4892 327.416 64.214 323.118 62.9363 318.824C58.912 305.291 54.6632 290.72 50.7971 275.84C47.674 263.756 43.8078 248.715 44.3963 233.971C44.6023 228.939 45.6581 222.454 51.4739 212.176C51.6468 212.705 51.8197 213.235 51.9963 213.761C53.0999 217.028 55.1488 220.287 56.6533 222.667C60.2987 228.439 65.2317 232.629 71.7354 235.472C77.1024 237.819 82.6717 239.673 88.0571 241.464C89.19 241.84 90.323 242.219 91.456 242.601C94.4246 243.602 97.5551 244.183 100.586 244.746C101.833 244.977 103.124 245.217 104.375 245.481C108.216 246.294 112.119 247.166 115.893 248.009C122.591 249.502 129.522 251.047 136.382 252.335C138.127 252.631 139.895 252.772 141.665 252.754C145.082 252.754 148.591 252.327 150.574 251.694C153.517 250.756 154.51 250.756 155.242 250.756C155.61 250.756 155.904 250.756 156.651 249.057C158.777 250.032 160.97 250.999 163.214 251.459C163.534 251.525 163.854 251.584 164.177 251.632L147.411 355.437L118.034 262.094L116.628 262.535L146.888 358.681L142.54 385.711C142.159 388.098 142.74 390.538 144.155 392.497C145.57 394.456 147.703 395.774 150.089 396.162L157.994 397.439C161.672 408.235 171.325 435.453 172.793 438.907C173.179 439.808 173.723 440.949 174.352 442.269C177.486 448.813 182.695 459.764 179.521 465.117Z" fill="#F7F5EE"/>
<path d="M196.869 214.505C196.027 214.112 195.166 213.77 194.294 213.424C191.914 212.526 185.834 212.729 181.335 213.17C178.76 213.424 173.352 213.409 169.107 213.35C169.843 211.003 170.299 209.23 170.299 208.399C170.299 206.008 169.195 198.809 164.226 197.19C158.711 195.437 153.047 194.196 147.304 193.482C147.764 190.907 148.338 188.38 149.044 185.805C149.537 184.01 150.071 182.171 150.589 180.39C152.171 174.928 153.808 169.285 154.661 163.642C155.44 157.981 155.042 152.22 153.492 146.721C151.847 140.909 149.471 126.632 149.445 126.489L147.974 126.728C148.073 127.316 150.387 141.232 152.057 147.122C153.548 152.419 153.931 157.966 153.183 163.418C152.348 168.961 150.722 174.556 149.136 179.971C148.621 181.759 148.084 183.605 147.588 185.412C146.852 188.06 146.267 190.672 145.796 193.321C140.9 192.783 134.761 190.506 131.03 189.138C129.927 188.737 129.004 188.402 128.334 188.174C124.77 187.019 119.425 185.489 114.153 185.489H112.259C108.426 185.507 107.388 185.489 106.634 184.727C106.339 184.36 106.116 183.939 105.98 183.488C105.468 182.208 104.696 180.276 101.694 177.97C100.443 177.03 99.4333 175.806 98.7483 174.399C98.0633 172.992 97.7226 171.442 97.7543 169.877C97.7543 168.796 92.0746 141.972 90.9379 136.605L89.496 136.91C92.185 149.586 96.213 168.832 96.2829 169.877C96.2505 171.664 96.6424 173.432 97.4264 175.038C98.2104 176.644 99.3641 178.041 100.793 179.114C103.478 181.192 104.133 182.833 104.611 184.029C104.813 184.67 105.148 185.262 105.593 185.765C106.811 186.982 108.187 186.975 112.266 186.957H114.153C119.215 186.957 124.413 188.446 127.882 189.568C128.522 189.778 129.449 190.12 130.519 190.514C134.271 191.901 140.488 194.192 145.55 194.77L145.965 194.814L147.017 194.924C152.691 195.622 158.289 196.845 163.737 198.577C167.559 199.824 168.795 205.728 168.795 208.388C168.795 209.124 168.287 210.989 167.54 213.317C167.389 213.788 167.231 214.277 167.066 214.789C165.811 218.544 164.156 223.069 163.038 226.126C162.423 227.807 161.934 229.139 161.68 229.885C161.452 230.555 161.059 231.747 160.577 233.229C159.473 236.624 157.24 243.411 155.85 247.053C155.647 247.579 155.463 248.043 155.302 248.418C155.184 248.706 155.05 248.987 154.901 249.26C154.084 249.26 152.866 249.382 150.119 250.268C147.216 251.195 140.838 251.648 136.648 250.864C129.809 249.58 122.894 248.039 116.206 246.546C112.428 245.703 108.521 244.835 104.674 244.018C103.405 243.75 102.099 243.507 100.848 243.283C97.8683 242.727 94.7894 242.157 91.9201 241.19L88.5395 240.064C83.1835 238.28 77.6473 236.441 72.3539 234.119C66.1261 231.397 61.4065 227.391 57.9229 221.873C56.4515 219.56 54.4541 216.385 53.4204 213.288C53.1077 212.35 52.795 211.404 52.4897 210.459C52.2862 209.836 52.0863 209.214 51.8901 208.594C50.5843 204.492 49.3409 200.358 48.127 196.322L47.3471 193.725C45.7874 188.575 44.3711 183.819 43.0174 179.25C42.3737 177.076 41.7594 174.836 41.1782 172.684C40.1408 168.913 39.0704 165.014 37.7939 161.28C35.5812 154.786 34.2849 148.015 33.9425 141.162C33.6592 135.42 33.479 128.762 34.9357 122.453C36.1749 117.085 38.1038 111.899 40.6742 107.025L40.9538 106.492C42.3038 103.917 43.7016 101.257 45.78 99.3446C48.0115 97.3556 50.5786 95.7788 53.3616 94.6875C54.2187 94.3197 55.0941 94.0143 55.9806 93.7201C56.6636 94.0324 57.3665 94.2991 58.0848 94.5183C59.5415 94.9941 61.0007 95.4637 62.4623 95.9272C65.8282 97.0013 69.3118 98.1343 72.6887 99.3225C76.7756 100.794 81.175 102.265 85.6776 103.17C87.1294 103.476 88.6082 103.636 90.0919 103.648C92.711 103.648 94.9476 103.071 96.7317 101.927C101.407 105.51 106.395 107.268 111.895 107.29H112.02C120.344 107.29 130.876 103.95 135.621 94.5624C135.879 94.0548 136.103 93.5508 136.302 93.0469C139.613 93.4809 144.211 94.4227 148.025 96.4532C148.548 96.7303 149.054 97.0271 149.545 97.3434C150.4 97.8981 151.196 98.5391 151.921 99.2563C158.281 105.613 166.635 126.165 166.944 126.901L177.855 159.136C178.164 160.239 185.477 185.713 186.724 188.469C187.651 190.499 193.827 206.567 196.869 214.505Z" fill="#F7F5EE"/>
<path d="M222.365 239.562C222.267 240.001 222.028 240.397 221.684 240.687C219.58 242.56 216.358 241.791 213.772 241.162C211.245 240.551 208.666 240.18 206.172 239.816L205.436 239.713C203.089 239.37 199.356 238.852 195.743 238.348C192.131 237.844 188.408 237.329 186.061 236.987L185.947 237.722L185.855 238.458C188.199 238.797 191.932 239.315 195.541 239.819C199.15 240.323 202.898 240.838 205.223 241.18L205.959 241.283C208.534 241.651 210.965 242.019 213.422 242.604C214.103 242.769 214.842 242.946 215.629 243.086C217.149 243.619 217.815 244.005 218.624 245.826C218.798 246.273 218.825 246.763 218.701 247.226C218.577 247.689 218.309 248.101 217.936 248.401C215.571 250.347 211.587 249.575 208.372 248.685L187.5 245.635V245.672L179.407 244.487L179.193 245.959C180.573 246.157 196.523 248.501 196.538 248.504C197.781 248.658 199.01 248.904 200.216 249.24C201.399 249.512 202.478 250.119 203.325 250.987C203.932 251.66 204.631 252.54 204.631 253.386C204.631 254.46 203.218 254.942 202.611 255.096C200.371 255.674 198.123 255.332 195.743 254.968L195.258 254.894C193.492 254.625 191.7 254.258 189.972 253.901C188.802 253.658 187.595 253.411 186.4 253.194C180.687 252.161 175.883 251.355 171.012 250.814C170.133 250.719 169.239 250.649 168.375 250.583C167.51 250.516 166.719 250.458 165.888 250.369C165.664 250.347 165.443 250.321 165.222 250.292C165.002 250.263 164.693 250.222 164.428 250.178C164.163 250.134 163.824 250.079 163.527 250.016C161.419 249.582 159.296 248.637 157.225 247.684C158.141 245.319 159.579 241.129 162.007 233.705C162.489 232.234 162.875 231.05 163.111 230.395C163.365 229.659 163.847 228.338 164.461 226.661C166.01 222.434 167.536 218.2 168.643 214.846C172.973 214.908 178.734 214.93 181.485 214.662C186.161 214.202 191.785 214.073 193.779 214.827C195.097 215.325 196.387 215.896 197.641 216.538L198.208 216.839C198.649 217.078 199.12 217.288 199.58 217.49L199.676 217.535C200.801 218.035 201.861 218.502 202.571 219.311C202.714 219.465 202.818 219.651 202.874 219.853C202.93 220.055 202.937 220.268 202.894 220.474C202.733 221.375 201.905 222.247 201.169 222.64C200.939 222.755 200.689 222.824 200.433 222.843C193.128 221.802 184.288 220.544 183.747 220.463L183.534 221.934L209.953 225.701C211.131 225.85 212.298 226.079 213.444 226.385C214.886 226.753 216.487 227.375 217.443 228.923C217.667 229.291 218.157 230.222 217.837 231.031C217.623 231.486 217.254 231.849 216.796 232.054C215.916 232.499 214.725 232.709 213.187 232.698C211.175 232.698 209.067 232.267 207.029 231.863C206.109 231.679 205.157 231.495 204.23 231.34C200.327 230.715 196.35 230.148 192.506 229.6C190.851 229.365 189.195 229.129 187.54 228.887L187.003 228.809L186.79 230.281L187.327 230.358L192.296 231.072C196.137 231.62 200.106 232.175 203.998 232.808C204.896 232.951 205.837 233.139 206.742 233.319C208.846 233.739 211.024 234.173 213.176 234.184H213.573C214.154 234.338 216.807 235.022 217.848 235.287C218.901 235.556 219.881 236.059 220.713 236.759C220.842 236.867 220.965 236.983 221.081 237.104C221.494 237.509 221.846 237.971 222.126 238.477C222.319 238.804 222.402 239.184 222.365 239.562V239.562Z" fill="#F7F5EE"/>
<path d="M333.008 264.084L309.021 412.587C308.861 413.579 308.508 414.529 307.981 415.383C307.453 416.238 306.763 416.98 305.949 417.568C305.135 418.155 304.213 418.577 303.236 418.808C302.259 419.039 301.246 419.075 300.255 418.914L297.93 418.547L296.458 418.311L159.094 396.13L157.45 395.865L150.306 394.71C148.306 394.384 146.516 393.278 145.33 391.634C144.144 389.991 143.658 387.945 143.979 385.944L147.882 361.79L148.404 358.549L165.645 251.813C166.521 251.908 167.396 251.974 168.257 252.041C169.118 252.107 169.99 252.173 170.832 252.269C175.666 252.806 180.441 253.604 186.12 254.63C187.301 254.847 188.5 255.094 189.659 255.333C191.41 255.701 193.216 256.069 195.026 256.337L195.508 256.411C196.989 256.676 198.488 256.829 199.992 256.867C200.994 256.869 201.993 256.746 202.964 256.499C204.921 255.995 206.087 254.822 206.087 253.361C206.087 252.011 205.186 250.841 204.399 249.977C204.253 249.816 204.098 249.662 203.935 249.517L207.982 250.109C209.886 250.686 211.857 251.011 213.846 251.077C215.685 251.077 217.428 250.676 218.819 249.532C219.45 249.029 219.9 248.334 220.099 247.553C220.298 246.771 220.236 245.945 219.922 245.202C219.638 244.511 219.249 243.868 218.767 243.297C220.191 243.244 221.553 242.707 222.63 241.774C223.217 241.263 223.622 240.575 223.781 239.813C223.855 239.442 223.855 239.059 223.781 238.688L272.393 246.552L274.233 246.85L326.659 255.311C327.65 255.471 328.599 255.825 329.453 256.352C330.307 256.879 331.049 257.569 331.636 258.382C331.811 258.618 331.972 258.864 332.118 259.118V259.118C332.973 260.623 333.287 262.376 333.008 264.084V264.084Z" fill="#F7F5EE"/>
<path d="M630.985 198.458C630.209 200.713 628.598 203.751 626.383 205.785C626.018 206.121 625.63 206.431 625.221 206.712L625.004 206.856C622.105 208.695 618.191 209.015 614.402 209.309C613.299 209.398 612.254 209.479 611.243 209.596C604.879 210.309 598.473 210.555 592.074 210.332C590.518 210.288 588.925 210.203 587.383 210.122H587.016C593.42 199.613 601.958 185.722 602.098 185.505C602.237 185.288 614.292 165.174 618.14 158.608C620.218 155.054 625.162 147.425 629.312 141.039C629.231 141.477 629.153 141.915 629.076 142.356C628.274 146.825 627.447 151.446 626.847 156.033C626.185 161.106 625.769 166.594 627.215 172.373C627.932 175.048 628.804 177.679 629.827 180.252C630.389 181.761 630.974 183.317 631.482 184.869C632.964 189.39 632.832 193.083 630.985 198.458Z" fill="#F7F5EE"/>
<path d="M695.794 487.727C695.794 494.136 687.065 503.586 685.583 505.142H589.76C586.081 501.805 585.541 496.24 585.872 493.275C586.24 490.115 587.943 487.507 591.22 485.226C591.614 484.95 592.03 484.682 592.471 484.417C593.02 484.086 593.603 483.762 594.218 483.446C597.378 481.827 601.877 481.077 606.229 480.348C608.863 479.911 611.353 479.495 613.553 478.899C618.015 477.685 622.102 474.853 625.692 472.373C626.913 471.527 628.068 470.729 629.135 470.07C632.188 468.18 638.556 462.713 641.937 459.723C646.079 460.392 651.847 460.966 654.907 460.966C659.689 460.966 689.254 461.845 689.555 461.856H689.761C690.339 461.852 690.916 461.819 691.49 461.757C691.609 463.54 691.887 465.309 692.322 467.043C693.631 471.921 695.794 481.084 695.794 487.727Z" fill="#F7F5EE"/>
<path d="M700.209 455.352C698.631 458.339 695.39 459.557 692.907 460.049C692.373 460.156 691.877 460.23 691.435 460.281C690.832 460.353 690.225 460.389 689.618 460.388C689.32 460.388 659.745 459.498 654.929 459.498C651.961 459.498 647.149 459.008 643.397 458.453C642.728 458.357 642.095 458.258 641.514 458.159C639.821 457.868 638.545 457.585 638.089 457.36C637.78 457.206 637.397 457.048 636.952 456.864C634.881 456.003 631.416 454.568 628.712 450.978C625.449 446.623 622.315 431.817 622.286 431.666V431.614L606.468 388.329L599.357 367.604L598.235 364.345L597.08 360.975L585.883 324.304C582.403 314.629 577.157 300.165 574.2 292.536C575.319 286.337 575.881 280.051 575.877 273.753C575.895 261.754 573.842 249.842 569.808 238.542C573.854 231.964 578.93 223.647 580.244 221.322C580.891 220.178 583.231 216.305 586.155 211.504L587.307 211.567C588.855 211.648 590.459 211.732 592.037 211.773C593.722 211.822 595.349 211.845 596.919 211.843C601.762 211.867 606.603 211.601 611.416 211.048C612.398 210.934 613.428 210.853 614.52 210.769C618.302 210.474 622.587 210.143 625.799 208.087C625.946 207.991 626.089 207.896 626.233 207.789C628.44 210.21 630.853 213.193 631.983 215.676C634.282 220.734 635.804 235.235 635.804 239.752C635.804 243.938 638.692 254.808 640.083 260.032L650.085 297.689L650.11 297.763C650.261 298.167 665.439 338.315 667.032 342.248C668.665 346.25 679.086 377.315 680.208 381.133C681.466 385.408 692.594 416.863 694.676 421.024C696.637 424.949 702.482 438.386 703.365 442.087C704.189 445.504 703.181 449.716 700.209 455.352Z" fill="#F7F5EE"/>
<path d="M597.845 367.748C597.478 370.941 596.926 375.385 596.374 379.744C595.344 388.087 594.281 396.713 594.031 399.726C593.943 400.767 593.817 402.091 593.663 403.614C592.99 410.669 591.868 422.478 592.53 429.272C592.629 430.298 592.747 431.372 592.865 432.472C593.648 439.642 594.619 448.562 591.349 451.832C588.932 454.249 586.618 455.757 583.929 456.556C583.462 456.695 582.984 456.813 582.491 456.924C581.128 457.182 579.743 457.305 578.357 457.291C572.868 457.291 540.861 455.676 539.485 455.607C537.733 455.283 536.003 454.848 534.306 454.304C533.853 454.161 533.386 454.003 532.912 453.83C530.304 452.888 527.486 451.527 525.617 449.658C520.658 444.7 521.181 433.638 521.457 430.364C521.95 424.56 523.627 390.835 523.642 390.515L525.764 362.863C532.877 358.519 539.446 353.344 545.334 347.446C559.669 333.194 569.516 315.055 573.659 295.27C576.561 302.947 581.13 315.502 584.474 324.79L595.66 361.421L597.845 367.748Z" fill="#F7F5EE"/>
<path d="M584.408 493.112C584.08 496.077 584.566 501.396 587.718 505.144H486.411C484.252 505.148 482.117 504.701 480.141 503.832C478.165 502.964 476.391 501.693 474.934 500.101C474.146 499.248 473.409 498.349 472.727 497.408C472.429 496.992 472.154 496.56 471.903 496.113C471.833 495.988 471.767 495.867 471.708 495.746C469.924 492.177 470.266 486.98 474.371 483.948C478.561 480.855 485.686 480.027 489.236 480.027C489.449 480.027 489.674 480.027 489.906 480.005C490.759 479.942 491.608 479.826 492.447 479.659V479.659C496.696 478.85 501.923 476.992 502.221 476.886C503.071 476.551 523.134 468.579 527.809 463.904C530.218 461.501 532.214 458.717 533.717 455.664C535.542 456.254 537.405 456.719 539.294 457.055H539.375C539.706 457.055 572.747 458.743 578.367 458.743C579.818 458.762 581.267 458.638 582.693 458.375C583.345 463.087 584.599 470.599 586.243 474.23C587.523 477.055 589.26 480.914 590.595 483.879C586.847 486.439 584.812 489.47 584.408 493.112Z" fill="#F7F5EE"/>
<path d="M499.864 469.836C498.65 471.676 495.052 475.218 491.771 478.297C490.939 478.458 490.095 478.548 489.247 478.566C485.517 478.566 478.009 479.452 473.507 482.774C469.306 485.875 467.989 491.602 470.406 496.414C470.542 496.686 470.7 496.973 470.877 497.267L470.546 497.613C468.007 500.236 463.792 501.788 460.069 503.16C459.194 503.484 458.366 503.789 457.575 504.098C455.489 504.922 453.286 504.911 450.954 504.9H449.585L441.952 504.967C433.256 505.04 423.898 505.103 414.385 505.106C412.86 505.106 411.334 505.115 409.809 505.132C406.988 505.154 404.071 505.176 401.209 505.132C399.034 505.14 396.907 504.5 395.099 503.293L394.69 503.024C393.219 502.061 391.354 500.861 390.78 499.276C390.281 497.869 390.073 496.374 390.171 494.884C390.268 493.394 390.668 491.94 391.346 490.609C392.958 487.298 394.517 485.511 399.48 483.723C402.099 482.781 405.292 482.549 408.106 482.347C410.571 482.167 412.7 482.012 414.117 481.428C417.243 480.133 425.472 474.633 429.934 470.557C432.609 468.119 434.168 463.782 435.224 459.89C437.232 459.482 439.212 458.95 441.154 458.297C447.599 456.134 467.485 442.372 468.342 441.78C468.71 441.508 474.964 436.947 479.278 433.621C481.261 437.3 485.212 443.781 489.361 446.257C495.045 449.649 498.591 455.622 499.786 458.617C501.67 463.274 501.692 467.055 499.864 469.836Z" fill="#F7F5EE"/>
<path d="M485.285 420.164C485.285 423.717 483.954 427.521 482.041 429.445C481.673 429.813 480.842 430.504 479.768 431.35C479.4 431.641 479.006 431.95 478.587 432.274C474.242 435.632 467.581 440.488 467.496 440.55C467.29 440.69 446.944 454.775 440.69 456.872C439.037 457.426 437.355 457.889 435.651 458.259C435.11 458.377 434.577 458.48 434.047 458.572C429.824 459.307 426.05 459.259 424.608 457.836C421.978 455.209 414.002 446.289 411.656 442.941C409.246 439.498 395.043 422.069 394.44 421.334L378.037 401.138L376.853 399.667L372.976 394.885C372.795 394.679 355.164 374.138 352.471 365.618C349.694 356.823 350.121 344.238 350.768 340.475C351.449 336.491 357.496 304.595 357.555 304.282L361.16 286.625C361.776 288.244 362.697 289.729 363.875 290.999C364.713 291.821 365.628 292.56 366.608 293.206C367.035 293.497 367.454 293.758 367.855 293.993C368.525 294.387 369.143 294.707 369.643 294.95C373.934 315.528 384.34 334.332 399.499 348.896C414.657 363.461 433.861 373.107 454.595 376.573C457.487 381.587 461.121 387.774 463.244 389.897L464.678 391.324C468.725 395.345 477.137 403.706 479.65 407.326C483.391 412.704 485.285 417.026 485.285 420.164Z" fill="#F7F5EE"/>
<path d="M389.794 261.608C388.264 263.859 386.373 266.699 385.148 268.744C383.967 270.719 382.908 272.79 381.889 274.814C381.278 276.017 380.646 277.26 379.994 278.459C379.708 278.996 379.428 279.541 379.148 280.092C378.31 281.733 377.445 283.432 376.275 284.819C375.574 285.71 374.632 286.382 373.561 286.754C373.231 286.847 372.895 286.921 372.556 286.975C372.158 287.043 371.764 287.132 371.376 287.243C370.848 287.408 370.362 287.686 369.952 288.056C369.459 288.518 369.035 289.048 368.694 289.631C368.809 290.384 368.932 291.135 369.062 291.886C369.135 292.29 369.205 292.691 369.282 293.092C369.058 292.971 368.823 292.839 368.58 292.695C368.179 292.46 367.756 292.195 367.333 291.908C366.47 291.329 365.662 290.671 364.92 289.944C363.448 288.472 362.477 286.144 361.723 283.885C361.458 283.109 361.226 282.344 361.006 281.619C360.939 281.402 360.873 281.189 360.811 280.979L360.733 280.725C359.558 276.938 358.715 273.056 358.214 269.123C357.644 264.653 357.165 259.927 358.1 255.759C358.556 253.717 359.608 252.135 361.157 250.241C362.144 249.039 363.199 247.894 364.316 246.812C365.871 247.841 367.496 248.759 369.18 249.56L370.191 250.057C370.644 250.281 371.092 250.509 371.541 250.745C377.812 254.043 383.905 257.669 389.794 261.608Z" fill="#F7F5EE"/>
<path d="M376.449 401.497L368.404 437.97C368.363 438.172 364.42 458.25 362.665 463.308C361.098 467.847 356.809 470.297 352.821 472.137C351.89 472.536 350.915 472.822 349.915 472.99C349.419 473.082 348.926 473.152 348.444 473.203C347.274 473.335 346.097 473.388 344.92 473.361C343.816 473.262 304.456 469.683 301.116 468.91C299.526 468.484 298.01 467.822 296.617 466.946C296.183 466.685 295.749 466.402 295.329 466.1C293.321 464.676 291.581 462.878 291.022 461.064C289.845 457.235 289.97 452.118 290.062 448.38C290.157 444.536 294.347 432.592 294.796 431.694C294.991 431.327 295.462 429.763 297.595 420.033L300.001 420.423C301.183 420.615 302.391 420.571 303.556 420.295C304.721 420.02 305.82 419.517 306.791 418.817C307.762 418.116 308.585 417.231 309.214 416.212C309.843 415.193 310.265 414.061 310.456 412.879L334.443 264.365C334.637 263.183 334.594 261.974 334.318 260.809C334.043 259.643 333.539 258.544 332.836 257.574C332.827 257.56 332.817 257.546 332.806 257.533C337.864 245.214 340.899 237.805 342.683 233.336C343.644 234.206 344.741 234.912 345.931 235.425C350.986 237.559 356.14 237.956 359.038 237.978C358.74 240.41 359.241 243.014 363.085 245.998C361.996 247.066 360.966 248.192 359.998 249.371C358.31 251.427 357.162 253.167 356.643 255.496C355.654 259.91 356.143 264.769 356.732 269.367C357.245 273.382 358.107 277.344 359.307 281.209L359.579 282.091C359.767 282.709 359.965 283.357 360.178 284.019L356.092 304.045C356.033 304.365 349.985 336.277 349.297 340.271C348.635 344.141 348.194 357.071 351.052 366.106C353.833 374.934 371.108 395.038 371.829 395.876L376.449 401.497Z" fill="#F7F5EE"/>
<path d="M448.754 230.672L444.509 233.905C434.331 241.66 415.382 256.094 413.043 258.438C410.387 261.094 408.044 262.33 403.755 263.345C399.811 264.276 393.238 261.918 392.443 261.62L391.847 261.215C391.538 261.002 391.111 260.726 390.626 260.395C387.208 258.121 379.634 253.236 371.891 249.285C371.442 249.054 370.99 248.829 370.541 248.605L369.805 248.237C368.283 247.515 366.808 246.695 365.391 245.783C364.942 245.484 364.53 245.194 364.155 244.912C360.359 242.035 360.212 239.762 360.509 237.897C360.557 237.588 360.62 237.293 360.679 237.01L360.719 236.819C360.748 236.676 360.792 236.536 360.852 236.403C361.536 234.766 364.203 232.783 366.02 231.437C366.729 230.939 367.407 230.399 368.05 229.819C368.786 229.083 369.338 227.784 369.927 226.409C370.548 224.937 371.255 223.296 372.182 222.362C374.091 220.453 383.975 210.9 386.727 209.094C388.48 207.891 390.165 206.592 391.773 205.202C392.204 204.834 392.631 204.488 393.061 204.135C394.643 202.84 396.302 201.461 398.152 199.912C399.083 199.136 400.058 198.315 401.095 197.436C401.191 197.359 401.297 197.278 401.408 197.197C401.721 196.983 402.004 196.728 402.25 196.439C402.425 196.221 402.557 195.971 402.64 195.704V195.704C402.774 195.168 402.812 194.612 402.754 194.063C402.754 193.872 402.736 193.695 402.736 193.482C402.736 191.304 402.861 188.854 403.839 186.798C404.056 186.283 404.347 185.804 404.704 185.374C405.489 184.309 406.444 183.378 407.529 182.619L406.679 181.42C405.634 182.155 404.694 183.03 403.887 184.021C401.992 180.92 398.259 175.019 393.76 169.023C387.341 160.463 384.564 153.783 384.538 153.717L383.177 154.272C383.291 154.552 386.042 161.184 392.583 169.906C397.328 176.226 401.213 182.439 402.96 185.326V185.345C401.43 187.846 401.283 190.863 401.26 193.471C401.26 193.691 401.26 193.916 401.282 194.137C401.316 194.813 401.323 195.24 401.084 195.553C400.915 195.733 400.726 195.893 400.521 196.031C400.385 196.13 400.256 196.23 400.153 196.329C397.049 198.948 394.496 201.074 392.119 203.024L390.843 204.087C389.277 205.443 387.636 206.711 385.928 207.883C382.893 209.877 372.45 220.045 371.151 221.343C370.022 222.469 369.257 224.264 368.577 225.846C368.047 227.089 367.547 228.263 367.013 228.789C366.42 229.316 365.796 229.807 365.144 230.26C362.897 231.934 359.822 234.214 359.303 236.444C356.584 236.444 351.431 236.102 346.498 234.019C345.293 233.49 344.197 232.741 343.264 231.812C342.874 231.438 342.505 231.041 342.161 230.624C340.502 228.652 339.288 226.298 338.398 224.371C336.301 219.835 335.749 215.174 335.164 210.23L334.749 206.747C334.182 202.023 333.597 197.142 332.869 192.356C331.728 184.808 321.888 138.572 321.789 138.105L320.351 138.41C320.45 138.877 330.283 185.073 331.416 192.577C332.151 197.341 332.722 202.211 333.288 206.923L333.704 210.407C334.303 215.465 334.866 220.243 337.062 224.989C338.081 227.196 339.512 229.936 341.543 232.151C339.071 238.276 335.08 248.042 331.717 256.234C330.39 254.966 328.708 254.132 326.895 253.843L275.642 245.581C283.344 238.548 303.407 220.199 305.806 217.804C306.457 217.153 307.078 216.572 307.678 216.013C309.767 214.06 311.419 212.518 311.419 210.414C311.419 205.305 313.479 203.977 313.49 203.969L313.91 203.73L311.335 179.496C311.335 179.327 309.606 162.593 309.606 153.985C309.606 145.764 312.181 133.97 316.485 128.467C320.652 123.144 323.536 120.941 325.854 119.168C326.981 118.347 328.051 117.45 329.054 116.482L337.033 108.257C337.07 109.665 337.231 111.067 337.515 112.447C337.998 113.857 338.999 115.031 340.314 115.732C341.724 116.449 343.291 116.803 344.872 116.762C346.129 116.749 347.381 116.6 348.606 116.317C361.032 113.525 374.462 106.48 376.563 104.376C377.272 103.571 377.758 102.593 377.972 101.54C378.249 100.38 378.418 99.1965 378.475 98.005V98.005C378.475 97.9866 378.475 97.9645 378.475 97.9461H379.866H380.657C382.496 97.8983 384.243 97.8505 385.777 98.8584C386.278 99.1895 386.745 99.5721 387.249 99.962C388.26 100.793 389.309 101.654 390.692 102.055C391.711 102.313 392.754 102.47 393.804 102.522C394.389 102.57 394.941 102.614 395.489 102.695C397.682 103.057 399.791 103.815 401.713 104.932C406.591 107.676 410.884 111.502 414.798 115.232C418.057 118.333 420.683 122.272 423.203 126.083C423.819 127.013 424.432 127.932 425.042 128.842C428.463 133.852 431.943 139.142 434.743 143.391C436.93 146.709 439.113 150.032 441.29 153.36C445.175 159.29 448.968 165.091 452.694 170.884C452.775 171.01 452.856 171.138 452.94 171.252C453.157 171.591 453.375 171.929 453.599 172.271L453.805 172.591C454.662 173.916 455.537 175.277 456.328 176.638C457.102 178.061 457.777 179.536 458.348 181.052C458.554 181.571 458.764 182.086 458.977 182.59C460.235 185.505 461.326 188.489 462.244 191.529C463.243 194.834 463.86 198.243 464.083 201.689C464.388 207.887 462.858 219.886 448.754 230.672Z" fill="#F7F5EE"/>
<path d="M574.402 273.762C574.404 279.164 573.985 284.559 573.148 289.896C573.005 290.823 572.846 291.735 572.677 292.662C568.905 313.039 559.012 331.781 544.316 346.391C538.761 351.953 532.59 356.864 525.923 361.028C525.408 361.352 524.892 361.669 524.374 361.981C508.453 371.512 490.235 376.524 471.679 376.478C466.266 376.481 460.862 376.06 455.515 375.22C454.886 375.124 454.261 375.018 453.636 374.907C433.495 371.296 414.888 361.761 400.194 347.521C385.499 333.281 375.385 314.983 371.144 294.965V294.965C371.067 294.597 370.997 294.27 370.927 293.92C370.67 292.611 370.436 291.293 370.228 289.966C370.593 289.367 371.145 288.905 371.799 288.653C372.133 288.56 372.472 288.485 372.814 288.428C373.207 288.362 373.596 288.275 373.98 288.167C375.324 287.713 376.509 286.881 377.394 285.772C378.67 284.257 379.575 282.462 380.451 280.762C380.727 280.225 380.999 279.688 381.282 279.162C381.941 277.944 382.577 276.694 383.191 275.483C384.203 273.493 385.248 271.437 386.403 269.502C387.613 267.483 389.489 264.668 391.008 262.432C391.424 262.711 391.656 262.873 391.67 262.884L391.744 262.936L391.825 262.969C392.086 263.068 397.254 265.033 401.643 265.033C402.464 265.043 403.284 264.957 404.085 264.779C408.621 263.708 411.233 262.322 414.073 259.482C416.346 257.208 435.967 242.262 445.396 235.082L449.637 231.845C454.603 228.048 458.66 223.498 461.372 218.683C464.443 213.228 465.834 207.485 465.51 201.614C465.287 198.057 464.656 194.537 463.63 191.123C462.701 188.03 461.596 184.993 460.32 182.026C460.11 181.53 459.907 181.022 459.701 180.511C459.105 178.93 458.401 177.392 457.594 175.909C456.891 174.691 456.122 173.496 455.387 172.326C468.538 170.247 481.966 170.706 494.946 173.676C495.486 173.797 496.023 173.926 496.561 174.062C509.432 177.25 521.554 182.929 532.242 190.777C531.547 192.205 531.04 193.29 530.797 193.878C529.325 197.417 518.165 216.406 516.384 218.834C515.45 220.11 512.5 225.532 509.09 231.808C505.889 237.694 502.582 243.774 500.802 246.666C497.006 252.816 499.5 259.43 499.606 259.71L499.676 259.89L499.827 260.011L501.707 261.542C498.267 264.209 492.665 268.476 490.057 270.05C486.191 272.379 481.192 275.859 479.816 278C479.54 278.434 479.08 279.03 478.576 279.721C476.115 283.01 474.287 285.666 475.023 287.398C475.758 289.131 478.271 289.973 479.47 290.231L473.555 296.116C472.649 296.986 471.803 297.916 471.024 298.901C469.92 300.299 468.817 302.043 469.027 304.367C469.148 305.736 469.762 306.847 470.664 307.413C471.191 307.726 471.794 307.887 472.407 307.877C472.654 307.876 472.9 307.855 473.143 307.814C473.29 307.788 473.437 307.755 473.584 307.719L472.823 308.679C471.861 309.86 471.235 311.278 471.009 312.784C470.851 313.994 470.781 315.727 471.951 316.808C472.532 317.325 473.268 317.636 474.044 317.691C474.217 317.691 474.39 317.713 474.559 317.713C475.806 317.695 477.02 317.311 478.05 316.61C478.009 317.352 478.081 318.096 478.263 318.817C478.453 319.601 478.895 320.302 479.522 320.811C480.149 321.319 480.925 321.607 481.732 321.631H482.019C485.61 321.631 488.567 318.434 490.763 315.609L492.713 313.659C492.66 313.902 492.622 314.148 492.599 314.395C492.488 315.561 492.466 317.036 493.272 318.118C493.545 318.478 493.902 318.767 494.311 318.959C494.721 319.151 495.171 319.241 495.623 319.221C496.322 319.208 497.011 319.058 497.653 318.78C500.07 317.79 501.85 315.984 503.572 314.241L503.91 313.895C505.198 312.596 506.423 311.217 507.611 309.885C508.398 308.999 509.211 308.083 510.028 307.207C513.967 302.988 517.319 299.482 520.872 296.172C522.822 294.332 524.65 291.871 526.967 288.465C527.858 287.118 528.643 285.704 529.314 284.235C530.271 285.037 530.885 285.563 531.043 285.706C531.97 286.633 534.722 287.387 537.665 287.387C539.931 287.387 542.333 286.946 544.168 285.809C547.777 283.573 549.488 277.646 550.996 272.419C551.29 271.397 551.57 270.433 551.853 269.528C553.273 264.996 560.314 253.791 563.334 249.005C563.878 248.133 564.312 247.449 564.577 247.015C564.919 246.452 565.636 245.29 566.582 243.749C567.222 242.711 567.972 241.486 568.789 240.151C572.516 250.965 574.413 262.324 574.402 273.762Z" fill="#F7F5EE"/>
<path d="M378.074 58.2778L377.986 59.2857C377.732 62.1954 377.364 65.1493 377.007 68.0039C376.673 70.6966 376.327 73.4812 376.077 76.2328C375.624 81.1804 375.742 84.8259 376.47 88.4235C376.54 88.7619 376.603 89.093 376.662 89.4204C376.294 89.5087 375.948 89.5896 375.591 89.6669C374.359 89.928 372.542 90.2076 371.015 89.5859C369.397 88.9312 368.381 87.4965 367.303 85.981C366.958 85.4954 366.601 84.9914 366.222 84.5095C365.331 83.3203 364.539 82.0591 363.857 80.739L363.735 80.522C363 79.1867 362.264 77.7925 361.528 76.2953C361.947 74.8791 362.315 73.4592 362.676 72.0613L362.885 71.2631C363.849 67.5477 364.129 62.1072 361.734 59.0061C361.204 58.315 360.519 57.7591 359.733 57.3838C358.947 57.0085 358.084 56.8245 357.213 56.8468C352.431 56.8468 350.224 59.9147 348.598 62.155C348.185 62.7576 347.729 63.3293 347.233 63.8655C346.52 64.5828 345.843 64.8587 345.162 64.7116C344.515 64.5174 343.935 64.1452 343.488 63.6374C343.277 63.4115 343.079 63.1732 342.896 62.9238C342.08 61.868 340.961 60.4224 338.066 60.4224C336.341 60.4224 334.388 60.9999 331.952 61.7283C328.922 62.6739 325.838 63.4355 322.716 64.009C319.795 64.5145 316.811 64.5245 313.887 64.0384C313.376 61.9236 313.103 59.7581 313.074 57.5825C313.074 52.1162 314.527 47.0987 317.268 43.078C317.854 42.2193 318.502 41.4042 319.206 40.6391C322.429 37.1445 326.972 34.3562 333.089 32.1159C340.115 29.5409 345.876 27.8966 351.224 26.9365C356.511 25.9838 363.654 27.7421 368.598 31.211C372.608 34.0251 375.768 38.4357 377.497 43.6298C378.975 48.0698 378.497 53.492 378.074 58.2778Z" fill="#F7F5EE"/>
<path d="M376.996 98.017C376.944 98.9992 376.815 99.9758 376.61 100.938C376.352 102.067 375.988 102.873 375.506 103.34C375.024 103.807 373.906 104.557 372.236 105.507C371.224 106.08 370.029 106.717 368.683 107.383L368.528 107.46C363.426 109.987 356.275 112.952 349.293 114.64C348.955 114.725 348.616 114.802 348.278 114.88C346.196 115.347 343.245 115.648 341.009 114.438C340.017 113.911 339.263 113.026 338.901 111.962C338.758 111.458 338.404 108.494 338.511 107.548H338.713C345.751 107.548 351.471 106.125 353.266 104.539L352.291 103.436C350.867 104.694 345.096 106.327 337.01 106.047C336.326 105.966 335.657 105.904 334.998 105.849C332.559 105.628 330.253 105.422 327.888 104.304C324.992 102.948 322.503 100.857 320.67 98.2377C317.643 93.8713 317.727 87.809 317.794 82.4604C317.794 81.7468 317.794 81.0442 317.794 80.36C317.794 76.5747 316.767 73.4333 315.667 70.1078C315.483 69.5524 315.299 69.0043 315.112 68.4194C314.832 67.5476 314.542 66.5985 314.27 65.5869C317.153 65.9907 320.082 65.9423 322.951 65.4434C326.131 64.8622 329.272 64.087 332.357 63.1223C334.693 62.427 336.536 61.8789 338.048 61.8789C340.222 61.8789 340.946 62.817 341.726 63.8102C341.954 64.1093 342.2 64.3943 342.462 64.6636C343.104 65.3756 343.938 65.8867 344.864 66.135C346.056 66.3962 347.207 65.9768 348.289 64.8953C348.842 64.3055 349.349 63.6733 349.804 63.0046C351.397 60.7974 353.203 58.307 357.228 58.307C357.873 58.285 358.514 58.4177 359.098 58.6942C359.682 58.9707 360.191 59.3828 360.582 59.8962C362.521 62.4013 362.422 67.2202 361.476 70.8803L361.267 71.6823C361.039 72.5688 360.811 73.4369 360.575 74.2977C360.384 75.015 360.185 75.7213 359.972 76.4239C359.555 77.8476 359.063 79.2485 358.5 80.6211C358.343 80.9639 358.105 81.263 357.805 81.492C357.506 81.7209 357.154 81.8729 356.782 81.9344C356.322 82.0402 355.844 82.0347 355.386 81.9183C354.929 81.8018 354.506 81.5778 354.152 81.2649L353.144 82.3354C353.958 83.0798 355.025 83.4874 356.128 83.4757C356.451 83.4762 356.772 83.4417 357.088 83.3727C357.693 83.2635 358.263 83.0071 358.746 82.626C359.229 82.245 359.611 81.751 359.858 81.1876C360.255 80.2386 360.593 79.2748 360.925 78.3073C361.443 79.3189 361.958 80.2864 362.477 81.2208L362.598 81.4378C363.321 82.8306 364.159 84.1607 365.103 85.4143C365.471 85.852 365.784 86.3192 366.133 86.8122C367.285 88.4344 368.477 90.1228 370.489 90.9284C371.351 91.2606 372.269 91.4242 373.193 91.4103C374.112 91.3959 375.028 91.2874 375.926 91.0866C376.253 91.0167 376.581 90.9395 376.908 90.8622C377.041 92.0173 377.104 93.1794 377.095 94.3421V94.5114C377.095 94.5849 377.095 94.6659 377.095 94.7541C377.084 95.9718 377.062 97.0532 376.996 98.017Z" fill="#F7F5EE"/>
<path d="M629.658 19.0373C629.653 23.2295 628.151 27.2822 625.423 30.4654C622.695 33.6487 618.92 35.7532 614.778 36.4001C614.403 35.8826 614.003 35.3823 613.579 34.8992C609.636 30.393 604.695 27.0124 601.249 24.9671C599.198 23.7338 597.024 22.7168 594.763 21.9323C594.6 20.9747 594.519 20.005 594.521 19.0336C594.521 14.3741 596.371 9.9054 599.666 6.61062C602.961 3.31584 607.43 1.46484 612.089 1.46484C616.749 1.46484 621.218 3.31584 624.512 6.61062C627.807 9.9054 629.658 14.3741 629.658 19.0336V19.0373Z" fill="#F7F5EE"/>
<path d="M616.588 64.4726C615.731 67.6472 614.584 70.8144 613.476 73.875C613.212 74.6107 612.947 75.3464 612.686 76.0821C612.45 76.8564 612.303 77.6548 612.248 78.4622C612.196 78.9257 612.156 79.4223 612.123 79.9336C612.075 80.6104 612.034 81.3241 611.994 82.0524V82.2621C609.529 81.92 606.072 81.1769 603.401 79.5731C600.73 77.9692 598.251 73.9523 596.562 70.6783C596.762 70.2887 596.934 69.8855 597.077 69.4718C598.663 65.006 598.781 60.3453 597.412 56.3467C597.092 55.4234 596.607 54.2536 595.661 53.4223C594.322 52.2488 591.648 51.2924 589.937 51.7963C587.112 52.6277 585.28 55.3241 584.644 59.5875C584.644 59.6648 584.622 59.7383 584.615 59.8119C584.607 59.8855 584.614 59.9039 584.596 59.9517H584.548C583.331 59.9517 582.518 59.9517 579.891 57.3289C578.361 55.7986 574.918 54.3419 571.276 52.7932C567.491 51.1894 563.577 49.5303 561.646 47.7536C558.107 44.4944 556.341 41.6251 555.495 39.3665C556.794 36.4788 558.982 33.742 562.025 31.2001C562.245 31.0162 567.472 26.6902 571.879 24.8362C575.742 23.2103 580.381 22.3422 586.476 22.1031C588.852 22.0328 591.223 22.361 593.491 23.0742C594.039 23.2397 594.594 23.4421 595.142 23.6333C597.004 24.3443 598.8 25.217 600.51 26.2414C603.864 28.2278 608.665 31.5165 612.483 35.8719C612.686 36.1036 612.884 36.3427 613.075 36.5855C613.436 37.0343 613.776 37.4978 614.094 37.976C616.152 41.1222 617.346 44.7543 617.556 48.5077C617.887 53.6981 618.008 59.227 616.588 64.4726Z" fill="#F7F5EE"/>
<path d="M611.894 83.7246C611.769 85.6926 611.593 87.6202 611.225 88.6943C610.692 90.2467 603.552 93.3035 596.963 95.3562C590.066 97.464 582.047 99.0825 581.094 98.1335C579.654 96.7877 578.097 95.5738 576.441 94.5064C575.889 94.1386 575.337 93.7707 574.848 93.4654C574.013 92.9357 573.281 92.4942 572.769 92.1889C572.188 91.8431 571.504 91.5121 570.776 91.1626C568.201 89.9266 564.673 88.2198 562.172 84.0225C559.817 80.0607 559.229 74.3516 558.743 69.7645C558.57 68.0907 558.405 66.509 558.173 65.2325C557.839 63.599 557.394 61.9901 556.841 60.4173C556.709 60.009 556.576 59.6006 556.448 59.196C554.741 53.7885 552.806 47.6674 554.73 41.3477C555.808 43.5143 557.625 46.0452 560.638 48.8151C562.756 50.7648 566.788 52.4937 570.687 54.1306C574.042 55.5505 577.511 57.022 578.839 58.3499C581.749 61.2633 582.885 61.4068 584.541 61.4031H584.706C585.001 61.4031 585.902 61.4031 586.064 59.9611L586.086 59.7846C586.641 56.0766 588.072 53.8547 590.342 53.1889C591.519 52.8395 593.675 53.6267 594.679 54.5095C595.367 55.1091 595.749 56.0508 596.007 56.8049C597.265 60.4835 597.155 64.7727 595.694 68.911C595.696 68.9269 595.696 68.943 595.694 68.9589C595.493 69.5456 595.222 70.1062 594.889 70.6289C594.421 71.3352 593.785 71.9164 592.983 71.9164C590.261 71.9164 588.793 71.4014 588.782 71.3941L588.271 72.7772C588.341 72.803 589.97 73.3878 592.983 73.3878C593.494 73.3768 593.996 73.2534 594.454 73.0265C594.912 72.7995 595.314 72.4745 595.632 72.0746C597.419 75.4147 599.961 79.2036 602.647 80.8148C605.578 82.5989 609.294 83.3861 611.894 83.7246Z" fill="#F7F5EE"/>
<path d="M630.684 133.487C630.445 134.73 630.202 136 629.967 137.272L628.591 139.391C624.335 145.943 619.027 154.105 616.856 157.828C613.016 164.387 600.947 184.509 600.829 184.704C600.292 185.579 591.632 199.65 585.338 210.001L584.467 211.436C581.734 215.923 579.578 219.495 578.949 220.606C577.709 222.813 573.063 230.406 569.145 236.792L568.171 238.385L565.338 242.99L563.33 246.257C563.068 246.687 562.642 247.36 562.097 248.232C558.787 253.474 551.937 264.385 550.458 269.101C550.171 270.02 549.892 270.991 549.594 272.021C548.159 276.995 546.533 282.63 543.403 284.569C539.603 286.927 533.103 285.672 532.08 284.676C531.885 284.481 531.128 283.833 529.965 282.855C529.597 282.564 529.23 282.24 528.807 281.887C522.781 276.87 510.112 266.507 504.068 261.567L502.898 260.611L500.923 258.999C500.577 257.958 498.977 252.429 502.056 247.434C503.859 244.51 507.177 238.407 510.384 232.506C513.632 226.536 516.697 220.897 517.576 219.701C519.415 217.163 530.616 198.171 532.158 194.437C532.378 193.9 532.827 192.936 533.445 191.667C533.647 191.251 533.868 190.799 534.107 190.317C536.498 185.45 540.482 177.637 543.635 171.453C545.761 167.278 547.442 163.982 548.097 162.651C549.016 160.775 552.143 155.746 555.362 150.651L556.557 148.757L557.293 147.602C560.42 142.658 563.37 137.99 564.282 136.264C566.273 132.527 578.791 112.538 578.919 112.354L577.672 111.574C577.154 112.398 565 131.806 562.984 135.595C562.108 137.239 559.261 141.753 556.208 146.575C555.984 145.174 555.708 143.449 555.369 141.407C554.361 135.282 558.08 128.098 559.464 126.067C560.847 124.037 569.613 102.624 569.984 101.712L568.623 101.156C566.107 107.311 559.342 123.629 558.246 125.24C556.775 127.399 552.831 135.047 553.92 141.646C554.402 144.589 554.766 146.855 555.024 148.459C551.367 154.245 547.821 159.895 546.78 162.018C546.129 163.342 544.367 166.8 542.325 170.806C539.228 176.883 535.336 184.534 532.908 189.445C522.32 181.711 510.351 176.072 497.646 172.833C500.68 169.353 504.844 164.589 505.275 164.159C505.959 163.475 539.415 129.088 540.861 127.598C541.067 127.366 561.509 104.279 565.699 100.093C568.005 97.7831 571.798 96.1241 574.652 95.1235C576.492 96.308 578.699 97.8677 580.045 99.203C580.413 99.5709 581.042 99.8872 582.598 99.8872C584.033 99.8872 586.247 99.6076 589.745 98.8168C593.637 97.9339 597.349 96.8046 597.389 96.7899C599.747 96.0542 611.567 92.2358 612.608 89.201C613.031 87.9724 613.218 86.0044 613.343 83.9149C613.376 83.4257 613.406 82.9328 613.432 82.4435C613.432 82.3442 613.432 82.2449 613.432 82.1456C613.465 81.5386 613.501 80.9243 613.542 80.332C614.204 80.5196 615.013 80.7661 615.955 81.0677C619.759 82.3111 619.475 85.5004 619.461 85.6292V85.7138C619.461 86.0228 619.498 88.7706 620.767 90.0397C621.343 90.5546 621.949 91.036 622.58 91.4817C624.743 93.1003 628.359 95.8077 630.485 98.8388C631.589 100.428 632.097 102.411 632.439 104.136C634.418 114.002 632.523 123.908 630.684 133.487Z" fill="#F7F5EE"/>
</svg>